<?xml version="1.0" encoding="UTF-8" standalone="no"?>
<!-- Created with Inkscape (http://www.inkscape.org/) -->

<svg
   xmlns:dc="http://purl.org/dc/elements/1.1/"
   xmlns:cc="http://creativecommons.org/ns#"
   xmlns:rdf="http://www.w3.org/1999/02/22-rdf-syntax-ns#"
   xmlns:svg="http://www.w3.org/2000/svg"
   xmlns="http://www.w3.org/2000/svg"
   xmlns:sodipodi="http://sodipodi.sourceforge.net/DTD/sodipodi-0.dtd"
   xmlns:inkscape="http://www.inkscape.org/namespaces/inkscape"
   width="255.18036"
   height="255.11786"
   id="svg2"
   version="1.1"
   inkscape:version="0.48.5 r10040"
   sodipodi:docname="mold for casting glue sq.pdf">
  <defs
     id="defs4" />
  <sodipodi:namedview
     id="base"
     pagecolor="#737373"
     bordercolor="#666666"
     borderopacity="1.0"
     inkscape:pageopacity="0.63137255"
     inkscape:pageshadow="2"
     inkscape:zoom="1.4"
     inkscape:cx="88.110926"
     inkscape:cy="160.0096"
     inkscape:document-units="mm"
     inkscape:current-layer="layer1"
     showgrid="false"
     units="mm"
     inkscape:window-width="1600"
     inkscape:window-height="848"
     inkscape:window-x="-8"
     inkscape:window-y="-8"
     inkscape:window-maximized="1"
     inkscape:snap-bbox="true"
     inkscape:snap-bbox-edge-midpoints="false"
     inkscape:bbox-nodes="false"
     inkscape:snap-midpoints="false"
     inkscape:object-paths="false"
     inkscape:object-nodes="true"
     inkscape:snap-bbox-midpoints="true"
     inkscape:snap-nodes="false"
     fit-margin-top="1"
     fit-margin-left="1"
     fit-margin-right="1"
     fit-margin-bottom="1" />
  <metadata
     id="metadata7">
    <rdf:RDF>
      <cc:Work
         rdf:about="">
        <dc:format>image/svg+xml</dc:format>
        <dc:type
           rdf:resource="http://purl.org/dc/dcmitype/StillImage" />
        <dc:title></dc:title>
      </cc:Work>
    </rdf:RDF>
  </metadata>
  <g
     inkscape:label="Layer 1"
     inkscape:groupmode="layer"
     id="layer1"
     transform="translate(-134.86294,-2398.4567)">
    <rect
       style="fill:#000000;stroke:none"
       id="rect2983"
       width="248.03149"
       height="248.03149"
       x="-785.7392"
       y="384.35565" />
    <rect
       y="383.00217"
       x="-479.38818"
       height="247.95641"
       width="247.95641"
       id="rect2985"
       style="fill:#000000;stroke:#000000;stroke-width:0.03543307;stroke-miterlimit:4;stroke-opacity:1;stroke-dasharray:none;stroke-dashoffset:0" />
    <rect
       y="383.00217"
       x="-188.67389"
       height="247.95641"
       width="247.95641"
       id="rect2989"
       style="fill:#000000;stroke:#000000;stroke-width:0.03543307;stroke-miterlimit:4;stroke-opacity:1;stroke-dasharray:none;stroke-dashoffset:0" />
    <rect
       style="fill:#000000;stroke:#000000;stroke-width:0.03543307;stroke-miterlimit:4;stroke-opacity:1;stroke-dasharray:none;stroke-dashoffset:0"
       id="rect2991"
       width="247.95641"
       height="247.95641"
       x="88.468971"
       y="383.00217" />
    <rect
       y="430.12799"
       x="135.5948"
       height="153.70474"
       width="153.70474"
       id="rect2993"
       style="fill:#ff9955;stroke:#000000;stroke-width:0.03543307;stroke-miterlimit:4;stroke-opacity:1;stroke-dasharray:none;stroke-dashoffset:0" />
    <path
       sodipodi:type="arc"
       style="fill:#c83737;fill-opacity:1;fill-rule:nonzero;stroke:none"
       id="path2995"
       sodipodi:cx="-81.428574"
       sodipodi:cy="675.93359"
       sodipodi:rx="65.714287"
       sodipodi:ry="65.714287"
       d="m -15.714287,675.93359 c 0,36.293 -29.421288,65.71429 -65.714287,65.71429 -36.292996,0 -65.714286,-29.42129 -65.714286,-65.71429 0,-36.29299 29.42129,-65.71428 65.714286,-65.71428 36.292999,0 65.714287,29.42129 65.714287,65.71428 z"
       transform="translate(16.732887,-168.95322)" />
    <rect
       y="790.43695"
       x="-785.7392"
       height="248.03149"
       width="248.03149"
       id="rect2999"
       style="fill:#000000;stroke:none" />
    <rect
       style="fill:#000000;stroke:#000000;stroke-width:0.03543307;stroke-miterlimit:4;stroke-opacity:1;stroke-dasharray:none;stroke-dashoffset:0"
       id="rect3001"
       width="247.95641"
       height="247.95641"
       x="-479.38818"
       y="789.0835" />
    <path
       style="fill:#000000;stroke:#000000;stroke-width:0.03543307;stroke-miterlimit:4;stroke-opacity:1;stroke-dasharray:none;stroke-dashoffset:0"
       d="m -188.6875,789.09375 0,247.93745 247.96875,0 0,-247.93745 -247.96875,0 z m 124,58.25 c 36.292998,0 65.71875,29.42575 65.71875,65.71875 0,36.293 -29.425752,65.71875 -65.71875,65.71875 -36.293,0 -65.71875,-29.42575 -65.71875,-65.71875 0,-36.293 29.42575,-65.71875 65.71875,-65.71875 z"
       transform="translate(0,2.5390623e-6)"
       id="rect3003"
       inkscape:connector-curvature="0" />
    <path
       style="fill:#000000;stroke:#000000;stroke-width:0.03543307;stroke-miterlimit:4;stroke-opacity:1;stroke-dasharray:none;stroke-dashoffset:0"
       d="m 88.46875,789.09375 0,247.93745 247.96875,0 0,-247.93745 -247.96875,0 z m 47.125,47.125 153.71875,0 0,153.6875 -153.71875,0 0,-153.6875 z"
       transform="translate(0,2.5390623e-6)"
       id="rect3005"
       inkscape:connector-curvature="0" />
    <path
       inkscape:connector-curvature="0"
       id="path3015"
       d="m -69.774073,849.70982 10.141894,0"
       style="fill:#d35f5f;stroke:#d35f5f;stroke-width:1px;stroke-linecap:butt;stroke-linejoin:miter;stroke-opacity:1" />
    <path
       style="fill:#ff2a2a;stroke:#ff2a2a;stroke-width:1px;stroke-linecap:butt;stroke-linejoin:miter;stroke-opacity:1"
       d="m -75.093831,789.53125 5.319758,60.17857"
       id="path3017"
       inkscape:connector-curvature="0"
       transform="translate(0,2.5390623e-6)" />
    <path
       style="fill:none;stroke:#ff0000;stroke-width:1px;stroke-linecap:butt;stroke-linejoin:miter;stroke-opacity:1"
       d="m -59.632179,849.70982 5.319759,-60.17857"
       id="path3019"
       inkscape:connector-curvature="0"
       transform="translate(0,2.5390623e-6)" />
    <path
       style="fill:#ff0000;stroke:#ff0000;stroke-width:1px;stroke-linecap:butt;stroke-linejoin:miter;stroke-opacity:1"
       d="m -75.093831,789.53125 20.781411,0 -5.319759,60.17857 -10.141894,0 z"
       id="path3021"
       inkscape:connector-curvature="0"
       transform="translate(0,2.5390623e-6)" />
    <path
       inkscape:connector-curvature="0"
       id="path3023"
       d="m 202.06242,789.53125 20.78141,0 -5.31976,60.17857 -10.1419,0 z"
       style="fill:#ff0000;stroke:#ff0000;stroke-width:1px;stroke-linecap:butt;stroke-linejoin:miter;stroke-opacity:1" />
    <rect
       style="fill:#000000;stroke:none"
       id="rect3027"
       width="248.03149"
       height="248.03149"
       x="-822.5249"
       y="1208.241" />
    <rect
       y="1233.5505"
       x="-483.4288"
       height="247.95641"
       width="247.95641"
       id="rect3029"
       style="fill:#ff0000;stroke:#000000;stroke-width:0.03543307;stroke-miterlimit:4;stroke-opacity:1;stroke-dasharray:none;stroke-dashoffset:0" />
    <path
       sodipodi:type="arc"
       style="fill:#ffff00;fill-opacity:1;fill-rule:nonzero;stroke:#ff0000;stroke-width:0.03543307;stroke-miterlimit:4;stroke-opacity:1;stroke-dasharray:none;stroke-dashoffset:0"
       id="path3049"
       sodipodi:cx="-876.25"
       sodipodi:cy="1271.4694"
       sodipodi:rx="9.4642859"
       sodipodi:ry="11.964286"
       d="m -866.78571,1271.4694 c 0,6.6077 -4.23731,11.9642 -9.46429,11.9642 -5.22698,0 -9.46429,-5.3565 -9.46429,-11.9642 0,-6.6077 4.23731,-11.9643 9.46429,-11.9643 5.22698,0 9.46429,5.3566 9.46429,11.9643 z"
       transform="translate(0,2.5390623e-6)" />
    <path
       sodipodi:type="arc"
       style="fill:#ffff00;fill-opacity:1;fill-rule:nonzero;stroke:#ff0000;stroke-width:0.03543307;stroke-miterlimit:4;stroke-opacity:1;stroke-dasharray:none;stroke-dashoffset:0"
       id="path3051"
       sodipodi:cx="-878.21429"
       sodipodi:cy="1242.3622"
       sodipodi:rx="10"
       sodipodi:ry="7.8571429"
       d="m -868.21429,1242.3622 c 0,4.3394 -4.47716,7.8571 -10,7.8571 -5.52285,0 -10,-3.5177 -10,-7.8571 0,-4.3394 4.47715,-7.8572 10,-7.8572 5.52284,0 10,3.5178 10,7.8572 z"
       transform="translate(0,2.5390623e-6)" />
    <path
       sodipodi:type="arc"
       style="fill:#ffff00;fill-opacity:1;fill-rule:nonzero;stroke:none"
       id="path3053"
       sodipodi:cx="-815.10718"
       sodipodi:cy="1215.6587"
       sodipodi:rx="7.4177523"
       sodipodi:ry="7.4177523"
       d="m -807.68943,1215.6587 c 0,4.0967 -3.32104,7.4177 -7.41775,7.4177 -4.09671,0 -7.41775,-3.321 -7.41775,-7.4177 0,-4.0967 3.32104,-7.4178 7.41775,-7.4178 4.09671,0 7.41775,3.3211 7.41775,7.4178 z"
       transform="matrix(0.90759077,0,0,0.90759077,-65.378947,122.28256)" />
    <path
       transform="matrix(0.90759077,0,0,0.90759077,147.92814,122.28256)"
       d="m -807.68943,1215.6587 c 0,4.0967 -3.32104,7.4177 -7.41775,7.4177 -4.09671,0 -7.41775,-3.321 -7.41775,-7.4177 0,-4.0967 3.32104,-7.4178 7.41775,-7.4178 4.09671,0 7.41775,3.3211 7.41775,7.4178 z"
       sodipodi:ry="7.4177523"
       sodipodi:rx="7.4177523"
       sodipodi:cy="1215.6587"
       sodipodi:cx="-815.10718"
       id="path3055"
       style="fill:#ffff00;fill-opacity:1;fill-rule:nonzero;stroke:none"
       sodipodi:type="arc" />
    <path
       transform="matrix(0.90759077,0,0,0.90759077,-65.378948,335.58965)"
       d="m -807.68943,1215.6587 c 0,4.0967 -3.32104,7.4177 -7.41775,7.4177 -4.09671,0 -7.41775,-3.321 -7.41775,-7.4177 0,-4.0967 3.32104,-7.4178 7.41775,-7.4178 4.09671,0 7.41775,3.3211 7.41775,7.4178 z"
       sodipodi:ry="7.4177523"
       sodipodi:rx="7.4177523"
       sodipodi:cy="1215.6587"
       sodipodi:cx="-815.10718"
       id="path3057"
       style="fill:#ffff00;fill-opacity:1;fill-rule:nonzero;stroke:none"
       sodipodi:type="arc" />
    <path
       sodipodi:type="arc"
       style="fill:#ffff00;fill-opacity:1;fill-rule:nonzero;stroke:none"
       id="path3059"
       sodipodi:cx="-815.10718"
       sodipodi:cy="1215.6587"
       sodipodi:rx="7.4177523"
       sodipodi:ry="7.4177523"
       d="m -807.68943,1215.6587 c 0,4.0967 -3.32104,7.4177 -7.41775,7.4177 -4.09671,0 -7.41775,-3.321 -7.41775,-7.4177 0,-4.0967 3.32104,-7.4178 7.41775,-7.4178 4.09671,0 7.41775,3.3211 7.41775,7.4178 z"
       transform="matrix(0.90759077,0,0,0.90759077,147.92814,335.58965)" />
    <path
       style="fill:#ffff00;fill-opacity:1;fill-rule:nonzero;stroke:none"
       d="m -466.09122,1244.1537 c -3.71814,0 -6.75,3.0006 -6.75,6.7187 0,3.7182 3.03186,6.7188 6.75,6.7188 3.71814,0 6.71875,-3.0006 6.71875,-6.7188 0,-3.7181 -3.00061,-6.7187 -6.71875,-6.7187 z m 213.28125,0 c -3.71814,0 -6.71875,3.0006 -6.71875,6.7187 0,3.7182 3.00061,6.7188 6.71875,6.7188 3.71814,0 6.75,-3.0006 6.75,-6.7188 0,-3.7181 -3.03186,-6.7187 -6.75,-6.7187 z m -213.28125,213.2813 c -3.71814,0 -6.75,3.0318 -6.75,6.75 0,3.7181 3.03186,6.7187 6.75,6.7187 3.71814,0 6.71875,-3.0006 6.71875,-6.7187 0,-3.7182 -3.00061,-6.75 -6.71875,-6.75 z m 213.28125,0 c -3.71814,0 -6.71875,3.0318 -6.71875,6.75 0,3.7181 3.00061,6.7187 6.71875,6.7187 3.71814,0 6.75,-3.0006 6.75,-6.7187 0,-3.7182 -3.03186,-6.75 -6.75,-6.75 z"
       id="path3061"
       inkscape:connector-curvature="0" />
    <path
       style="fill:#000000;stroke:#000000;stroke-width:0.03543307;stroke-miterlimit:4;stroke-opacity:1;stroke-dasharray:none;stroke-dashoffset:0"
       d="m -183.47768,1224.8081 0,247.9374 247.968751,0 0,-247.9374 -113.5625,0 -5.15625,58.4687 c 33.83515,2.6788 60.46875,30.9768 60.46875,65.5 0,36.293 -29.42575,65.7188 -65.71875,65.7188 -36.293002,0 -65.718751,-29.4258 -65.718751,-65.7188 0,-34.5119 26.618179,-62.774 60.437501,-65.4687 l -5.15625,-58.5 -113.562501,0 z"
       id="path3077"
       inkscape:connector-curvature="0" />
    <path
       style="fill:#000000;stroke:#000000;stroke-width:0.03543307;stroke-miterlimit:4;stroke-opacity:1;stroke-dasharray:none;stroke-dashoffset:0"
       d="m 138.46875,1233.375 0,247.9375 247.96875,0 0,-247.9375 -113.5625,0 -4.15625,47.125 70.59375,0 0,153.6875 -153.71875,0 0,-153.6875 70.59375,0 -4.1875,-47.125 -113.53125,0 z"
       transform="translate(0,2.5390623e-6)"
       id="path3083"
       inkscape:connector-curvature="0" />
    <path
       inkscape:connector-curvature="0"
       id="path3088"
       d="m -166.13393,1235.4018 c -3.71814,0 -6.75,3.0006 -6.75,6.7187 0,3.7182 3.03186,6.7188 6.75,6.7188 3.71814,0 6.71875,-3.0006 6.71875,-6.7188 0,-3.7181 -3.00061,-6.7187 -6.71875,-6.7187 z m 213.28125,0 c -3.71814,0 -6.71875,3.0006 -6.71875,6.7187 0,3.7182 3.00061,6.7188 6.71875,6.7188 3.71814,0 6.75,-3.0006 6.75,-6.7188 0,-3.7181 -3.03186,-6.7187 -6.75,-6.7187 z m -213.28125,213.2813 c -3.71814,0 -6.75,3.0318 -6.75,6.75 0,3.7181 3.03186,6.7187 6.75,6.7187 3.71814,0 6.71875,-3.0006 6.71875,-6.7187 0,-3.7182 -3.00061,-6.75 -6.71875,-6.75 z m 213.28125,0 c -3.71814,0 -6.71875,3.0318 -6.71875,6.75 0,3.7181 3.00061,6.7187 6.71875,6.7187 3.71814,0 6.75,-3.0006 6.75,-6.7187 0,-3.7182 -3.03186,-6.75 -6.75,-6.75 z"
       style="fill:#ffff00;fill-opacity:1;fill-rule:nonzero;stroke:none" />
    <path
       style="fill:#ffff00;fill-opacity:1;fill-rule:nonzero;stroke:none"
       d="m 155.8125,1243.9688 c -3.71814,0 -6.75,3.0006 -6.75,6.7187 0,3.7182 3.03186,6.7188 6.75,6.7188 3.71814,0 6.71875,-3.0006 6.71875,-6.7188 0,-3.7181 -3.00061,-6.7187 -6.71875,-6.7187 z m 213.28125,0 c -3.71814,0 -6.71875,3.0006 -6.71875,6.7187 0,3.7182 3.00061,6.7188 6.71875,6.7188 3.71814,0 6.75,-3.0006 6.75,-6.7188 0,-3.7181 -3.03186,-6.7187 -6.75,-6.7187 z M 155.8125,1457.2501 c -3.71814,0 -6.75,3.0318 -6.75,6.75 0,3.7181 3.03186,6.7187 6.75,6.7187 3.71814,0 6.71875,-3.0006 6.71875,-6.7187 0,-3.7182 -3.00061,-6.75 -6.71875,-6.75 z m 213.28125,0 c -3.71814,0 -6.71875,3.0318 -6.71875,6.75 0,3.7181 3.00061,6.7187 6.71875,6.7187 3.71814,0 6.75,-3.0006 6.75,-6.7187 0,-3.7182 -3.03186,-6.75 -6.75,-6.75 z"
       id="path3090"
       inkscape:connector-curvature="0" />
    <path
       style="fill:#000000;stroke:none"
       d="m -822.53125,1638.0313 0,248.0312 248.03125,0 0,-248.0312 -248.03125,0 z m 17.375,10.625 c 3.71814,0 6.71875,3.0319 6.71875,6.75 0,3.7181 -3.00061,6.7188 -6.71875,6.7188 -3.71814,0 -6.75,-3.0007 -6.75,-6.7188 0,-3.7181 3.03186,-6.75 6.75,-6.75 z m 213.3125,0 c 3.71814,0 6.71875,3.0319 6.71875,6.75 0,3.7181 -3.00061,6.7188 -6.71875,6.7188 -3.71814,0 -6.75,-3.0007 -6.75,-6.7188 0,-3.7181 3.03186,-6.75 6.75,-6.75 z m -213.3125,213.3125 c 3.71814,0 6.71875,3.0319 6.71875,6.75 0,3.7181 -3.00061,6.7187 -6.71875,6.7187 -3.71814,0 -6.75,-3.0007 -6.75,-6.7187 0,-3.7181 3.03186,-6.75 6.75,-6.75 z m 213.3125,0 c 3.71814,0 6.71875,3.0319 6.71875,6.75 0,3.7181 -3.00061,6.7187 -6.71875,6.7187 -3.71814,0 -6.75,-3.0007 -6.75,-6.7187 0,-3.7181 3.03186,-6.75 6.75,-6.75 z"
       id="rect3092"
       inkscape:connector-curvature="0" />
    <path
       style="fill:#ff0000;stroke:#000000;stroke-width:0.03543307;stroke-miterlimit:4;stroke-opacity:1;stroke-dasharray:none;stroke-dashoffset:0"
       d="m -502.17709,1638.0625 0,247.9687 247.96875,0 0,-247.9687 -247.96875,0 z m 17.34375,10.5937 c 3.71814,0 6.71875,3.0007 6.71875,6.7188 0,3.7182 -3.00061,6.7188 -6.71875,6.7188 -3.71814,0 -6.75,-3.0006 -6.75,-6.7188 0,-3.7181 3.03186,-6.7188 6.75,-6.7188 z m 213.28125,0 c 3.71814,0 6.75,3.0007 6.75,6.7188 0,3.7182 -3.03186,6.7188 -6.75,6.7188 -3.71814,0 -6.71875,-3.0006 -6.71875,-6.7188 0,-3.7181 3.00061,-6.7188 6.71875,-6.7188 z m -213.28125,213.2813 c 3.71814,0 6.71875,3.0318 6.71875,6.75 0,3.7181 -3.00061,6.7187 -6.71875,6.7187 -3.71814,0 -6.75,-3.0006 -6.75,-6.7187 0,-3.7182 3.03186,-6.75 6.75,-6.75 z m 213.28125,0 c 3.71814,0 6.75,3.0318 6.75,6.75 0,3.7181 -3.03186,6.7187 -6.75,6.7187 -3.71814,0 -6.71875,-3.0006 -6.71875,-6.7187 0,-3.7182 3.00061,-6.75 6.71875,-6.75 z"
       id="rect3094"
       inkscape:connector-curvature="0" />
    <path
       style="fill:#000000;stroke:#000000;stroke-width:0.03543307;stroke-miterlimit:4;stroke-opacity:1;stroke-dasharray:none;stroke-dashoffset:0"
       d="m -181.85419,1638.0781 0,247.9375 247.968753,0 0,-247.9375 -113.5625,0 -5.15625,58.4687 c 33.83515,2.6788 60.46875,30.9768 60.46875,65.5 0,36.293 -29.42575,65.7188 -65.71875,65.7188 -36.293002,0 -65.718753,-29.4257 -65.718753,-65.7188 0,-34.5118 26.618181,-62.774 60.437503,-65.4687 l -5.15625,-58.5 -113.562503,0 z m 17.34375,10.5937 c 3.71814,0 6.71875,3.0007 6.71875,6.7188 0,3.7182 -3.00061,6.7188 -6.71875,6.7188 -3.71814,0 -6.75,-3.0006 -6.75,-6.7188 0,-3.7181 3.03186,-6.7188 6.75,-6.7188 z m 213.281253,0 c 3.71814,0 6.75,3.0007 6.75,6.7188 0,3.7182 -3.03186,6.7188 -6.75,6.7188 -3.71814,0 -6.71875,-3.0006 -6.71875,-6.7188 0,-3.7181 3.00061,-6.7188 6.71875,-6.7188 z m -213.281253,213.2813 c 3.71814,0 6.71875,3.0318 6.71875,6.75 0,3.7181 -3.00061,6.7187 -6.71875,6.7187 -3.71814,0 -6.75,-3.0006 -6.75,-6.7187 0,-3.7182 3.03186,-6.75 6.75,-6.75 z m 213.281253,0 c 3.71814,0 6.75,3.0318 6.75,6.75 0,3.7181 -3.03186,6.7187 -6.75,6.7187 -3.71814,0 -6.71875,-3.0006 -6.71875,-6.7187 0,-3.7182 3.00061,-6.75 6.71875,-6.75 z"
       id="path3106"
       inkscape:connector-curvature="0" />
    <path
       style="fill:#000000;stroke:#000000;stroke-width:0.03543307;stroke-miterlimit:4;stroke-opacity:1;stroke-dasharray:none;stroke-dashoffset:0"
       d="m 138.46872,1638.078 0,247.9376 247.96875,0 0,-247.9376 -113.5625,0 -4.15625,47.125 70.59375,0 0,153.6876 -153.71875,0 0,-153.6876 70.59375,0 -4.1875,-47.125 -113.53125,0 z m 17.34375,10.5939 c 3.71814,0 6.71875,3.0006 6.71875,6.7188 0,3.7182 -3.00061,6.7187 -6.71875,6.7187 -3.71814,0 -6.75,-3.0006 -6.75,-6.7187 0,-3.7181 3.03186,-6.7188 6.75,-6.7188 z m 213.28125,0 c 3.71814,0 6.75,3.0006 6.75,6.7188 0,3.7182 -3.03186,6.7187 -6.75,6.7187 -3.71814,0 -6.71875,-3.0006 -6.71875,-6.7187 0,-3.7181 3.00061,-6.7188 6.71875,-6.7188 z m -213.28125,213.2812 c 3.71814,0 6.71875,3.0318 6.71875,6.75 0,3.7181 -3.00061,6.7188 -6.71875,6.7188 -3.71814,0 -6.75,-3.0006 -6.75,-6.7188 0,-3.7182 3.03186,-6.75 6.75,-6.75 z m 213.28125,0 c 3.71814,0 6.75,3.0318 6.75,6.75 0,3.7181 -3.03186,6.7188 -6.75,6.7188 -3.71814,0 -6.71875,-3.0006 -6.71875,-6.7188 0,-3.7182 3.00061,-6.75 6.71875,-6.75 z"
       id="path3108"
       inkscape:connector-curvature="0" />
    <path
       inkscape:connector-curvature="0"
       id="path3016"
       d="m -822.53125,2031.9908 0,248.0312 248.03125,0 0,-248.0312 -248.03125,0 z m 17.375,10.625 c 3.71814,0 6.71875,3.0319 6.71875,6.75 0,3.7181 -3.00061,6.7188 -6.71875,6.7188 -3.71814,0 -6.75,-3.0007 -6.75,-6.7188 0,-3.7181 3.03186,-6.75 6.75,-6.75 z m 213.3125,0 c 3.71814,0 6.71875,3.0319 6.71875,6.75 0,3.7181 -3.00061,6.7188 -6.71875,6.7188 -3.71814,0 -6.75,-3.0007 -6.75,-6.7188 0,-3.7181 3.03186,-6.75 6.75,-6.75 z m -213.3125,213.3125 c 3.71814,0 6.71875,3.0319 6.71875,6.75 0,3.7181 -3.00061,6.7187 -6.71875,6.7187 -3.71814,0 -6.75,-3.0007 -6.75,-6.7187 0,-3.7181 3.03186,-6.75 6.75,-6.75 z m 213.3125,0 c 3.71814,0 6.71875,3.0319 6.71875,6.75 0,3.7181 -3.00061,6.7187 -6.71875,6.7187 -3.71814,0 -6.75,-3.0007 -6.75,-6.7187 0,-3.7181 3.03186,-6.75 6.75,-6.75 z"
       style="fill:#000000;stroke:none" />
    <path
       inkscape:connector-curvature="0"
       id="path3018"
       d="m -571.12,2032.022 0,247.9687 247.96875,0 0,-247.9687 -247.96875,0 z m 17.34375,10.5937 c 3.71814,0 6.71875,3.0007 6.71875,6.7188 0,3.7182 -3.00061,6.7188 -6.71875,6.7188 -3.71814,0 -6.75,-3.0006 -6.75,-6.7188 0,-3.7181 3.03186,-6.7188 6.75,-6.7188 z m 213.28125,0 c 3.71814,0 6.75,3.0007 6.75,6.7188 0,3.7182 -3.03186,6.7188 -6.75,6.7188 -3.71814,0 -6.71875,-3.0006 -6.71875,-6.7188 0,-3.7181 3.00061,-6.7188 6.71875,-6.7188 z m -213.28125,213.2813 c 3.71814,0 6.71875,3.0318 6.71875,6.75 0,3.7181 -3.00061,6.7187 -6.71875,6.7187 -3.71814,0 -6.75,-3.0006 -6.75,-6.7187 0,-3.7182 3.03186,-6.75 6.75,-6.75 z m 213.28125,0 c 3.71814,0 6.75,3.0318 6.75,6.75 0,3.7181 -3.03186,6.7187 -6.75,6.7187 -3.71814,0 -6.71875,-3.0006 -6.71875,-6.7187 0,-3.7182 3.00061,-6.75 6.71875,-6.75 z"
       style="fill:#ff0000;stroke:#000000;stroke-width:0.03543307;stroke-miterlimit:4;stroke-opacity:1;stroke-dasharray:none;stroke-dashoffset:0" />
    <path
       inkscape:connector-curvature="0"
       id="path3020"
       d="m -181.85419,2032.0376 0,247.9375 247.968753,0 0,-247.9375 -113.5625,0 -5.15625,58.4687 c 33.83515,2.6788 60.46875,30.9768 60.46875,65.5 0,36.293 -29.42575,65.7188 -65.71875,65.7188 -36.293002,0 -65.718753,-29.4257 -65.718753,-65.7188 0,-34.5118 26.618181,-62.774 60.437503,-65.4687 l -5.15625,-58.5 -113.562503,0 z m 17.34375,10.5937 c 3.71814,0 6.71875,3.0007 6.71875,6.7188 0,3.7182 -3.00061,6.7188 -6.71875,6.7188 -3.71814,0 -6.75,-3.0006 -6.75,-6.7188 0,-3.7181 3.03186,-6.7188 6.75,-6.7188 z m 213.281253,0 c 3.71814,0 6.75,3.0007 6.75,6.7188 0,3.7182 -3.03186,6.7188 -6.75,6.7188 -3.71814,0 -6.71875,-3.0006 -6.71875,-6.7188 0,-3.7181 3.00061,-6.7188 6.71875,-6.7188 z m -213.281253,213.2813 c 3.71814,0 6.71875,3.0318 6.71875,6.75 0,3.7181 -3.00061,6.7187 -6.71875,6.7187 -3.71814,0 -6.75,-3.0006 -6.75,-6.7187 0,-3.7182 3.03186,-6.75 6.75,-6.75 z m 213.281253,0 c 3.71814,0 6.75,3.0318 6.75,6.75 0,3.7181 -3.03186,6.7187 -6.75,6.7187 -3.71814,0 -6.71875,-3.0006 -6.71875,-6.7187 0,-3.7182 3.00061,-6.75 6.71875,-6.75 z"
       style="fill:#000000;stroke:#000000;stroke-width:0.03543307;stroke-miterlimit:4;stroke-opacity:1;stroke-dasharray:none;stroke-dashoffset:0" />
    <path
       inkscape:connector-curvature="0"
       id="path3022"
       d="m 138.46872,2032.0375 0,247.9376 247.96875,0 0,-247.9376 -113.5625,0 -4.15625,47.125 70.59375,0 0,153.6876 -153.71875,0 0,-153.6876 70.59375,0 -4.1875,-47.125 -113.53125,0 z m 17.34375,10.5939 c 3.71814,0 6.71875,3.0006 6.71875,6.7188 0,3.7182 -3.00061,6.7187 -6.71875,6.7187 -3.71814,0 -6.75,-3.0006 -6.75,-6.7187 0,-3.7181 3.03186,-6.7188 6.75,-6.7188 z m 213.28125,0 c 3.71814,0 6.75,3.0006 6.75,6.7188 0,3.7182 -3.03186,6.7187 -6.75,6.7187 -3.71814,0 -6.71875,-3.0006 -6.71875,-6.7187 0,-3.7181 3.00061,-6.7188 6.71875,-6.7188 z m -213.28125,213.2812 c 3.71814,0 6.71875,3.0318 6.71875,6.75 0,3.7181 -3.00061,6.7188 -6.71875,6.7188 -3.71814,0 -6.75,-3.0006 -6.75,-6.7188 0,-3.7182 3.03186,-6.75 6.75,-6.75 z m 213.28125,0 c 3.71814,0 6.75,3.0318 6.75,6.75 0,3.7181 -3.03186,6.7188 -6.75,6.7188 -3.71814,0 -6.71875,-3.0006 -6.71875,-6.7188 0,-3.7182 3.00061,-6.75 6.71875,-6.75 z"
       style="fill:#000000;stroke:#000000;stroke-width:0.03543307;stroke-miterlimit:4;stroke-opacity:1;stroke-dasharray:none;stroke-dashoffset:0" />
    <path
       style="fill:none;stroke:#ff0000;stroke-width:0.03543307;stroke-miterlimit:4;stroke-opacity:1;stroke-dasharray:none"
       d="m -822.53125,2393.4194 0,248.0312 248.03125,0 0,-248.0312 -248.03125,0 z m 17.375,10.625 c 3.71814,0 6.71875,3.0319 6.71875,6.75 0,3.7181 -3.00061,6.7188 -6.71875,6.7188 -3.71814,0 -6.75,-3.0007 -6.75,-6.7188 0,-3.7181 3.03186,-6.75 6.75,-6.75 z m 213.3125,0 c 3.71814,0 6.71875,3.0319 6.71875,6.75 0,3.7181 -3.00061,6.7188 -6.71875,6.7188 -3.71814,0 -6.75,-3.0007 -6.75,-6.7188 0,-3.7181 3.03186,-6.75 6.75,-6.75 z m -213.3125,213.3125 c 3.71814,0 6.71875,3.0319 6.71875,6.75 0,3.7181 -3.00061,6.7187 -6.71875,6.7187 -3.71814,0 -6.75,-3.0007 -6.75,-6.7187 0,-3.7181 3.03186,-6.75 6.75,-6.75 z m 213.3125,0 c 3.71814,0 6.71875,3.0319 6.71875,6.75 0,3.7181 -3.00061,6.7187 -6.71875,6.7187 -3.71814,0 -6.75,-3.0007 -6.75,-6.7187 0,-3.7181 3.03186,-6.75 6.75,-6.75 z"
       id="path3024"
       inkscape:connector-curvature="0" />
    <path
       style="fill:none;stroke:#ff0000;stroke-width:0.03543307;stroke-miterlimit:4;stroke-opacity:1;stroke-dasharray:none;stroke-dashoffset:0"
       d="m -571.12,2393.4506 0,247.9687 247.96875,0 0,-247.9687 -247.96875,0 z m 17.34375,10.5937 c 3.71814,0 6.71875,3.0007 6.71875,6.7188 0,3.7182 -3.00061,6.7188 -6.71875,6.7188 -3.71814,0 -6.75,-3.0006 -6.75,-6.7188 0,-3.7181 3.03186,-6.7188 6.75,-6.7188 z m 213.28125,0 c 3.71814,0 6.75,3.0007 6.75,6.7188 0,3.7182 -3.03186,6.7188 -6.75,6.7188 -3.71814,0 -6.71875,-3.0006 -6.71875,-6.7188 0,-3.7181 3.00061,-6.7188 6.71875,-6.7188 z m -213.28125,213.2813 c 3.71814,0 6.71875,3.0318 6.71875,6.75 0,3.7181 -3.00061,6.7187 -6.71875,6.7187 -3.71814,0 -6.75,-3.0006 -6.75,-6.7187 0,-3.7182 3.03186,-6.75 6.75,-6.75 z m 213.28125,0 c 3.71814,0 6.75,3.0318 6.75,6.75 0,3.7181 -3.03186,6.7187 -6.75,6.7187 -3.71814,0 -6.71875,-3.0006 -6.71875,-6.7187 0,-3.7182 3.00061,-6.75 6.71875,-6.75 z"
       id="path3026"
       inkscape:connector-curvature="0" />
    <path
       style="fill:none;stroke:#ff0000;stroke-width:0.03543307;stroke-miterlimit:4;stroke-opacity:1;stroke-dasharray:none;stroke-dashoffset:0"
       d="m -181.85419,2399.1805 0,247.9375 247.968753,0 0,-247.9375 -113.5625,0 -5.15625,58.4687 c 33.83515,2.6788 60.46875,30.9768 60.46875,65.5 0,36.293 -29.42575,65.7188 -65.71875,65.7188 -36.293002,0 -65.718753,-29.4257 -65.718753,-65.7188 0,-34.5118 26.618181,-62.774 60.437503,-65.4687 l -5.15625,-58.5 -113.562503,0 z m 17.34375,10.5937 c 3.71814,0 6.71875,3.0007 6.71875,6.7188 0,3.7182 -3.00061,6.7188 -6.71875,6.7188 -3.71814,0 -6.75,-3.0006 -6.75,-6.7188 0,-3.7181 3.03186,-6.7188 6.75,-6.7188 z m 213.281253,0 c 3.71814,0 6.75,3.0007 6.75,6.7188 0,3.7182 -3.03186,6.7188 -6.75,6.7188 -3.71814,0 -6.71875,-3.0006 -6.71875,-6.7188 0,-3.7181 3.00061,-6.7188 6.71875,-6.7188 z m -213.281253,213.2813 c 3.71814,0 6.71875,3.0318 6.71875,6.75 0,3.7181 -3.00061,6.7187 -6.71875,6.7187 -3.71814,0 -6.75,-3.0006 -6.75,-6.7187 0,-3.7182 3.03186,-6.75 6.75,-6.75 z m 213.281253,0 c 3.71814,0 6.75,3.0318 6.75,6.75 0,3.7181 -3.03186,6.7187 -6.75,6.7187 -3.71814,0 -6.71875,-3.0006 -6.71875,-6.7187 0,-3.7182 3.00061,-6.75 6.71875,-6.75 z"
       id="path3796"
       inkscape:connector-curvature="0" />
    <path
       style="fill:none;stroke:#ff0000;stroke-width:0.03543307000000000;stroke-miterlimit:4;stroke-opacity:1;stroke-dasharray:none;stroke-dashoffset:0"
       d="m 138.46872,2402.0375 0,247.9376 247.96875,0 0,-247.9376 -113.5625,0 -4.15625,47.125 70.59375,0 0,153.6876 -153.71875,0 0,-153.6876 70.59375,0 -4.1875,-47.125 -113.53125,0 z m 17.34375,10.5939 c 3.71814,0 6.71875,3.0006 6.71875,6.7188 0,3.7182 -3.00061,6.7187 -6.71875,6.7187 -3.71814,0 -6.75,-3.0006 -6.75,-6.7187 0,-3.7181 3.03186,-6.7188 6.75,-6.7188 z m 213.28125,0 c 3.71814,0 6.75,3.0006 6.75,6.7188 0,3.7182 -3.03186,6.7187 -6.75,6.7187 -3.71814,0 -6.71875,-3.0006 -6.71875,-6.7187 0,-3.7181 3.00061,-6.7188 6.71875,-6.7188 z m -213.28125,213.2812 c 3.71814,0 6.71875,3.0318 6.71875,6.75 0,3.7181 -3.00061,6.7188 -6.71875,6.7188 -3.71814,0 -6.75,-3.0006 -6.75,-6.7188 0,-3.7182 3.03186,-6.75 6.75,-6.75 z m 213.28125,0 c 3.71814,0 6.75,3.0318 6.75,6.75 0,3.7181 -3.03186,6.7188 -6.75,6.7188 -3.71814,0 -6.71875,-3.0006 -6.71875,-6.7188 0,-3.7182 3.00061,-6.75 6.71875,-6.75 z"
       id="path3798"
       inkscape:connector-curvature="0" />
  </g>
</svg>
